<svg id="svg8" xmlns="http://www.w3.org/2000/svg" viewBox="0 0 431.52 435.74"><defs><style>.cls-1{fill:#006;}.cls-2{fill:#f60;}</style></defs><path class="cls-1" d="M261.56,33.47a20,20,0,0,0-4.84,1.5c-2.13,1-3.44,2-6.78,5.37-1.74,1.75-19.28,19.23-39,38.84-24.19,24.09-36.07,36-36.62,36.78a18,18,0,0,0-1.59,18.66,20.89,20.89,0,0,0,3.3,4.57,17.38,17.38,0,0,0,17.66,3.92,18.13,18.13,0,0,0,4-1.89c.21-.13.43-.22.47-.16s-3,3.15,39.23-38.81c39.1-38.92,39.13-38.94,40.49-40.74a18,18,0,0,0,3.57-10.09,17.29,17.29,0,0,0-19.94-18Z" transform="translate(-45.52 -33.26)"/><path class="cls-1" d="M310.53,83.62a18.14,18.14,0,0,0-6.94,2.68c-.59.4-1.15.76-1.23.8s-22.46,22.27-49.72,49.41-50.47,50.21-51.63,51.3a19.77,19.77,0,0,0-4.75,6,17.85,17.85,0,0,0,.08,16.08,11.23,11.23,0,0,1,.8,1.75,2.81,2.81,0,0,0,.7.92l1.86,1.93a14.74,14.74,0,0,0,1.22,1.2A5.72,5.72,0,0,1,202,217c0,.07.1.11.22.11s.22.05.22.11a3.94,3.94,0,0,0,1.17,1.23c.08,0,.16.06.16.12s1.82,2,4,4.26,4,4.16,4,4.24a.15.15,0,0,0,.16.13,4.1,4.1,0,0,1,1.16,1.22c0,.07.1.12.22.12s.22,0,.22.1a4,4,0,0,0,1.16,1.23.15.15,0,0,1,.16.14c0,.06,1.83,2,4,4.24s4,4.17,4,4.24a.16.16,0,0,0,.17.14,4.07,4.07,0,0,1,1.16,1.21c0,.08.1.12.22.12s.22.05.22.11a3.8,3.8,0,0,0,1.16,1.23.15.15,0,0,1,.16.13c0,.06,1.83,2,4,4.24s4,4.17,4,4.25a.15.15,0,0,0,.16.13,4,4,0,0,1,1.17,1.22c0,.07.1.11.22.11s.22,0,.22.11a3.8,3.8,0,0,0,1.16,1.23.15.15,0,0,1,.16.13c0,.06,1.82,2,4,4.25s4,4.17,4,4.24a.15.15,0,0,0,.16.13,3.87,3.87,0,0,1,1.16,1.22c0,.07.11.12.22.12s.22,0,.22.1a3.83,3.83,0,0,0,1.17,1.23.15.15,0,0,1,.16.14c0,.06,1.82,2,4,4.24s4.05,4.18,4.05,4.26a.15.15,0,0,0,.16.12,3.94,3.94,0,0,1,1.16,1.21c0,.08.1.12.22.12s.22.05.22.11a4,4,0,0,0,1.16,1.23c.09,0,.17.06.17.13s1.82,2,4,4.24,4,4.19,4,4.26.09.12.2.14a2.2,2.2,0,0,1,.69.65c.28.35.6.65.7.65s.18.06.18.12a3.8,3.8,0,0,0,1.16,1.23.15.15,0,0,1,.16.13c0,.06,1.83,2,4.05,4.25s4,4.18,4,4.26.09.11.19.13a2.11,2.11,0,0,1,.69.65,2,2,0,0,0,.71.65c.09,0,.18.06.18.12a3.7,3.7,0,0,0,1.16,1.23.15.15,0,0,1,.16.12,15.67,15.67,0,0,0,1.56,1.72l1.57,1.61-2.63,2.64c-3.26,3.26-71,70.66-72.14,71.77l-.84.8-1.7-1.73c-.93-1-1.86-1.93-2-2.17s-.43-.43-.52-.43-.19-.06-.19-.13-2.35-2.51-5.22-5.43-5.22-5.37-5.22-5.45-.09-.11-.18-.11-.34-.2-.53-.43-2.62-2.75-5.4-5.6-5.07-5.21-5.07-5.28-.09-.12-.18-.12-.33-.19-.53-.43-2.6-2.74-5.39-5.58-5.08-5.22-5.08-5.29-.09-.12-.17-.12-.34-.19-.53-.43-2.61-2.75-5.4-5.58-5.08-5.22-5.08-5.3-.1-.12-.22-.12-.22-.05-.22-.11-2.41-2.59-5.36-5.6-5.37-5.52-5.37-5.59-.11-.12-.22-.12-.22-.06-.22-.12-2.42-2.58-5.37-5.59-5.37-5.52-5.37-5.59-.1-.12-.22-.12-.22-.06-.22-.12-2.41-2.58-5.37-5.59-5.37-5.52-5.37-5.6-.1-.12-.22-.12-.22-.06-.22-.12-2.41-2.58-5.37-5.59-5.37-5.52-5.37-5.59-.08-.12-.17-.13-.43-.3-.71-.66a2.22,2.22,0,0,0-.69-.65c-.1,0-.19-.07-.19-.15s-2.12-2.28-4.71-4.91-4.7-4.85-4.7-4.92-.09-.12-.18-.14a2.1,2.1,0,0,1-.71-.65,2.09,2.09,0,0,0-.69-.65c-.1,0-.19-.08-.19-.15s-2.12-2.29-4.71-4.91S94,259,94,258.87s-.09-.12-.18-.13-.42-.3-.7-.65a2.16,2.16,0,0,0-.7-.66c-.1,0-.19-.07-.19-.15s-2.11-2.28-4.7-4.91-4.71-4.85-4.71-4.92-.09-.12-.18-.14-.42-.29-.7-.65a2.22,2.22,0,0,0-.69-.65c-.11,0-.19-.08-.19-.13s-1.74-1.9-3.86-4.07c-4.09-4.17-5.15-5-7.51-6.13a16.9,16.9,0,0,0-22.84,22c1.25,3,2.17,4.15,7.85,9.94,2.37,2.4,4.29,4.42,4.29,4.49s.11.12.23.12.22.06.22.12,2.41,2.58,5.36,5.6,5.37,5.51,5.37,5.59.09.12.21.12a.27.27,0,0,1,.26.16c0,.09,2.66,2.83,5.86,6.08l22.35,22.84c3.19,3.26,8.22,8.41,11.18,11.42s8,8.16,11.18,11.42L132.43,347l11.17,11.42,10.77,11c2.73,2.79,5,5.14,5,5.2a.15.15,0,0,0,.16.13,3.87,3.87,0,0,1,1.16,1.22c0,.07.11.11.22.11s.22.06.22.12,2.12,2.29,4.71,4.93,4.71,4.85,4.71,4.92a.15.15,0,0,0,.16.12,3.87,3.87,0,0,1,1.16,1.22c0,.07.1.12.22.12s.22.06.22.12,2.12,2.28,4.71,4.92,4.71,4.85,4.71,4.91a.15.15,0,0,0,.16.14,4.07,4.07,0,0,1,1.16,1.21c0,.08.1.12.22.12s.22.06.22.12,2.12,2.29,4.71,4.93,4.7,4.85,4.7,4.91.08.13.17.13a4.1,4.1,0,0,1,1.16,1.22c0,.07.1.12.22.12s.22.05.22.13,1,1.11,2.16,2.34a20.41,20.41,0,0,0,5.27,4.17,17.25,17.25,0,0,0,15.17.33c2.93-1.38.34,1.13,49.83-48.14C292.4,344,315.53,321,318.49,318c4-4,5.57-5.64,6.16-6.51a17.84,17.84,0,0,0-.59-20.83,37.52,37.52,0,0,0-2.67-2.94c-.91-.89-1.87-1.88-2.12-2.18s-.53-.55-.63-.55a.15.15,0,0,1-.16-.13c0-.06-2.28-2.45-5.08-5.28s-5.23-5.36-5.41-5.6-.41-.41-.5-.41-.19-.06-.19-.13-2.3-2.45-5.09-5.3-5.22-5.36-5.4-5.58-.41-.41-.5-.41-.19-.06-.19-.14-2.29-2.45-5.09-5.29-5.22-5.36-5.4-5.58a1.1,1.1,0,0,0-.5-.42c-.1,0-.19-.06-.19-.12s-2.35-2.52-5.22-5.44-5.22-5.37-5.22-5.45-.1-.12-.22-.12-.22-.05-.22-.11-2.41-2.59-5.37-5.6-5.37-5.52-5.37-5.59-.1-.12-.22-.12-.22-.06-.22-.12-2.41-2.58-5.37-5.59-5.37-5.52-5.37-5.59-.1-.12-.22-.12-.22-.06-.22-.12-2.41-2.58-5.36-5.59-5.37-5.52-5.37-5.6-.11-.12-.22-.12-.22-.06-.22-.12a21.67,21.67,0,0,0-1.77-1.92L237,201.5l44.47-44.28c32.55-32.42,44.74-44.64,45.45-45.59a18.18,18.18,0,0,0,2.81-16.07,17.35,17.35,0,0,0-19.2-11.94Z" transform="translate(-45.52 -33.26)"/><path class="cls-1" d="M359.51,133.61a18.25,18.25,0,0,0-7.19,2.85c-1,.67-2.61,2.18-8,7.61-12.34,12.36-41.6,41.44-43.82,43.54-3.26,3.11-4.67,5.18-5.75,8.42a17.66,17.66,0,0,0,2.18,15.69,33,33,0,0,0,3.28,3.68c1.41,1.43,2.56,2.64,2.56,2.72s.09.13.19.15a2.09,2.09,0,0,1,.69.65c.28.35.6.65.71.65s.17.08.17.13,2.12,2.29,4.71,4.93,4.71,4.85,4.71,4.91.08.13.19.15a2.22,2.22,0,0,1,.69.65c.28.36.6.65.7.65s.18.08.18.14,2.12,2.28,4.71,4.92,4.7,4.86,4.7,4.91.09.14.2.15a2.28,2.28,0,0,1,.69.66c.28.35.6.65.7.65s.18.07.18.13,2.12,2.29,4.71,4.93,4.7,4.85,4.7,4.91.09.13.19.15a2.09,2.09,0,0,1,.69.65,2,2,0,0,0,.71.65c.09,0,.18.08.18.14s1.86,2,4.16,4.37,4.71,4.85,5.4,5.58a15.23,15.23,0,0,0,4.56,3.41,17.39,17.39,0,0,0,17.51-.95,8.77,8.77,0,0,1,1.25-.72c.25-.05,51.58-51.2,52.79-52.61a18,18,0,0,0-.83-25.16c-.51-.49-1.14-1.15-1.39-1.44s-.53-.55-.64-.55a.15.15,0,0,1-.16-.13c0-.06-2.29-2.45-5.09-5.3s-5.22-5.36-5.39-5.58a1.25,1.25,0,0,0-.5-.41c-.11,0-.19-.06-.19-.14s-2.24-2.4-5-5.18l-10.78-11c-3.19-3.27-8.22-8.42-11.18-11.43s-6.21-6.35-7.24-7.4a18.53,18.53,0,0,0-5.48-4.13A17.41,17.41,0,0,0,359.51,133.61Z" transform="translate(-45.52 -33.26)"/><path class="cls-2" d="M111.47,184.28a19,19,0,0,0-16,12.58,18.41,18.41,0,0,0-.07,11.69,14.58,14.58,0,0,0,2,4,17.29,17.29,0,0,0,26.93,2,18.45,18.45,0,0,0,5.62-13.28A16.55,16.55,0,0,0,124.82,189a16.81,16.81,0,0,0-9.79-4.66l-1.65-.13A15.39,15.39,0,0,0,111.47,184.28Z" transform="translate(-45.52 -33.26)"/><path class="cls-1" d="M160.62,228.15c-.75.71-16.05,15.86-22.24,22-1.73,1.72-1.76,1.76-1.76,2.42s0,.66,2.57,3.29c15.21,15.55,20.58,20.95,20.93,21a1.73,1.73,0,0,0,.75,0c.4-.1,24.61-24.05,24.91-24.66.47-.9.72-.62-11.36-13-6.28-6.41-11.56-11.72-11.74-11.83C162,227.12,161.58,227.26,160.62,228.15Z" transform="translate(-45.52 -33.26)"/><path class="cls-2" d="M358.57,178.07c-.75.72-16.05,15.86-22.24,22-1.73,1.72-1.76,1.76-1.76,2.41s0,.67,2.57,3.3c15.21,15.54,20.58,21,20.93,21a1.91,1.91,0,0,0,.75,0c.4-.1,24.61-24.05,24.91-24.66.48-.9.73-.62-11.36-13-6.28-6.41-11.56-11.73-11.74-11.83C360,177.05,359.53,177.18,358.57,178.07Z" transform="translate(-45.52 -33.26)"/><path class="cls-2" d="M456.14,234.27c-3.88.83-6,2.14-9.71,5.94-2.16,2.22-189.12,188.35-198.57,197.69-3.44,3.41-4.23,4.46-5.23,7a14.31,14.31,0,0,0-1.18,5.93,13.29,13.29,0,0,0,.25,3.93,17.82,17.82,0,0,0,13.81,13.95,17.24,17.24,0,0,0,9-.62,13.13,13.13,0,0,0,3.46-1.71c.61-.38,1.11-.62,1.26-.56.37.12,204.74-203.37,204.64-203.76a3.16,3.16,0,0,1,.59-1.29,16.15,16.15,0,0,0,2.62-9.12A17.73,17.73,0,0,0,463,234.29,19.48,19.48,0,0,0,456.14,234.27Z" transform="translate(-45.52 -33.26)"/><path class="cls-2" d="M209.42,284.43a18.82,18.82,0,0,0-17,18.5,16.93,16.93,0,0,0,12,16.43,15.69,15.69,0,0,0,5.06.69,18.72,18.72,0,0,0,18.4-18.57,16.49,16.49,0,0,0-4.72-11.93,16.78,16.78,0,0,0-10.37-5.06c-.65,0-1.34-.1-1.54-.13S210.23,284.37,209.42,284.43Z" transform="translate(-45.52 -33.26)"/></svg>